<svg xmlns="http://www.w3.org/2000/svg" version="1.1" xmlns:xlink="http://www.w3.org/1999/xlink" xmlns:svgjs="http://svgjs.dev/svgjs" width="1000" height="999" viewBox="0 0 1000 999"><g transform="matrix(1,0,0,1,-0.215743440233382,-0.21552769679306039)"><svg viewBox="0 0 343 343" data-background-color="#ffffff" preserveAspectRatio="xMidYMid meet" height="999" width="1000" xmlns="http://www.w3.org/2000/svg" xmlns:xlink="http://www.w3.org/1999/xlink"><g id="tight-bounds" transform="matrix(1,0,0,1,0.0740000000000407,0.07400000000001228)"><svg viewBox="0 0 342.85155851775386 342.85155851775386" height="342.85155851775386" width="342.85155851775386"><g><svg></svg></g><g><svg viewBox="0 0 342.85155851775386 342.85155851775386" height="342.85155851775386" width="342.85155851775386"><g><path d="M0 171.426c0-94.676 76.75-171.426 171.426-171.426 94.676 0 171.426 76.75 171.426 171.426 0 94.676-76.75 171.426-171.426 171.426-94.676 0-171.426-76.75-171.426-171.426zM171.426 332.691c89.064 0 161.265-72.201 161.265-161.265 0-89.064-72.201-161.265-161.265-161.266-89.064 0-161.265 72.201-161.266 161.266 0 89.064 72.201 161.265 161.266 161.265z" data-fill-palette-color="tertiary" fill="#ff5858" stroke="transparent"></path><ellipse rx="164.56874808852186" ry="164.56874808852186" cx="171.42577925887693" cy="171.42577925887693" fill="#ff5858" stroke="transparent" stroke-width="0" fill-opacity="1" data-fill-palette-color="tertiary"></ellipse></g><g transform="matrix(1,0,0,1,64.84655864529837,115.0925222840329)"><svg viewBox="0 0 213.1584412271571 112.66651394968807" height="112.66651394968807" width="213.1584412271571"><g><svg viewBox="0 0 213.1584412271571 112.66651394968807" height="112.66651394968807" width="213.1584412271571"><g><svg viewBox="0 0 213.15844122715714 112.66651394968808" height="112.66651394968807" width="213.1584412271571"><g><svg viewBox="0 0 213.15844122715714 112.66651394968808" height="112.66651394968808" width="213.15844122715714"><g><svg viewBox="0 0 213.15844122715714 112.66651394968808" height="112.66651394968808" width="213.15844122715714"><g><svg viewBox="0 0 213.15844122715714 112.66651394968808" height="112.66651394968808" width="213.15844122715714"><g transform="matrix(1,0,0,1,0,0)"><svg width="213.15844122715714" viewBox="1.6600000858306885 -26.65999984741211 50.439998626708984 26.65999984741211" height="112.66651394968808" data-palette-color="#ffffff"><path d="M16.89 0L16.89 0 1.66 0 1.66-6.64 16.89-6.64Q17.58-6.64 18.07-7.13 18.55-7.62 18.55-8.3L18.55-8.3Q18.55-9.01 18.07-9.23 17.58-9.45 16.89-9.45L16.89-9.45 9.96-9.45Q8.23-9.45 6.71-10.11 5.2-10.77 4.08-11.9 2.95-13.04 2.31-14.55 1.66-16.06 1.66-17.8L1.66-17.8Q1.66-19.53 2.31-21.04 2.95-22.56 4.08-23.68 5.2-24.8 6.71-25.45 8.23-26.1 9.96-26.1L9.96-26.1 23.46-26.1 23.46-19.46 9.96-19.46Q9.28-19.46 8.79-18.97 8.3-18.48 8.3-17.8L8.3-17.8Q8.3-17.09 8.79-16.59 9.28-16.09 9.96-16.09L9.96-16.09 16.89-16.09Q18.6-16.09 20.12-15.52 21.63-14.94 22.75-13.92 23.88-12.89 24.54-11.45 25.2-10.01 25.2-8.3L25.2-8.3Q25.2-6.57 24.54-5.07 23.88-3.56 22.75-2.43 21.63-1.29 20.12-0.65 18.6 0 16.89 0ZM35.4-14.94L35.4 0 28.73 0 28.73-26.15 30.34-26.15 32.54-23.61Q34.15-25.07 36.19-25.87 38.23-26.66 40.45-26.66L40.45-26.66Q42.84-26.66 44.97-25.74 47.09-24.83 48.68-23.23 50.27-21.63 51.18-19.49 52.1-17.36 52.1-14.94L52.1-14.94 52.1 0 45.43 0 45.43-14.94Q45.43-15.97 45.04-16.88 44.65-17.8 43.97-18.48 43.28-19.17 42.38-19.56 41.48-19.95 40.45-19.95L40.45-19.95Q39.4-19.95 38.47-19.56 37.55-19.17 36.86-18.48 36.18-17.8 35.79-16.88 35.4-15.97 35.4-14.94L35.4-14.94Z" opacity="1" transform="matrix(1,0,0,1,0,0)" fill="#ffffff" class="undefined-text-0" data-fill-palette-color="quaternary" id="text-0"></path></svg></g></svg></g></svg></g></svg></g><g></g></svg></g></svg></g></svg></g></svg></g><defs></defs></svg><rect width="342.85155851775386" height="342.85155851775386" fill="none" stroke="none" visibility="hidden"></rect></g></svg></g></svg>