<svg version="1.2" xmlns="http://www.w3.org/2000/svg" viewBox="0 0 1000 999" width="1000" height="999"><style>.a{fill:#9572ff;stroke:#000;stroke-width:2.9}.b{fill:#9572ff;stroke:#000;stroke-width:.4}.c{fill:#fff}</style><path fill-rule="evenodd" class="a" d="m0 499.3c0-275.8 223.8-499.3 499.8-499.3 276 0 499.8 223.5 499.8 499.3 0 275.7-223.8 499.3-499.8 499.3-276 0-499.8-223.6-499.8-499.3zm499.8 469.7c259.6 0 470.1-210.3 470.1-469.7 0-259.4-210.5-469.7-470.1-469.7-259.7 0-470.2 210.3-470.2 469.7 0 259.4 210.5 469.7 470.2 469.7z"/><path class="b" d="m499.8 978.6c-265.3 0-479.8-214.3-479.8-479.3 0-265.1 214.5-479.3 479.8-479.3 265.3 0 479.8 214.2 479.8 479.3 0 265-214.5 479.3-479.8 479.3z"/><path class="c" d="m376.7 663.4h-187.6v-81.8h187.6q8.5 0 14.5-6 6-6 6-14.4 0-8.7-6-11.5-6-2.7-14.5-2.7h-85.4q-21.3 0-40-8.1-18.6-8.1-32.4-22-13.9-14-21.8-32.6-8-18.6-8-40 0-21.3 8-39.9 7.9-18.7 21.8-32.5 13.8-13.8 32.4-21.8 18.7-8 40-8h166.3v81.7h-166.3q-8.4 0-14.4 6.1-6 6-6 14.4 0 8.7 6 14.9 6 6.1 14.4 6.1h85.4q21.1 0 39.8 7 18.6 7.2 32.4 19.7 13.9 12.7 22.1 30.4 8.1 17.7 8.1 38.8 0 21.3-8.1 39.8-8.2 18.5-22.1 32.4-13.8 14.1-32.4 22-18.7 8-39.8 8zm228.1-183.9v183.9h-82.2v-321.9h19.8l27.1 31.3q19.9-18 45-27.9 25.1-9.7 52.5-9.7 29.4 0 55.7 11.3 26.1 11.2 45.7 30.9 19.6 19.7 30.8 46.1 11.3 26.2 11.3 56v183.9h-82.2v-183.9q0-12.7-4.8-23.9-4.8-11.3-13.2-19.7-8.5-8.5-19.5-13.3-11.1-4.8-23.8-4.8-13 0-24.4 4.8-11.4 4.8-19.9 13.3-8.3 8.4-13.1 19.7-4.8 11.2-4.8 23.9z"/></svg>